<mxfile host="app.diagrams.net" modified="2021-04-12T01:36:30.527Z" agent="5.0 (Windows NT 10.0; Win64; x64) AppleWebKit/537.36 (KHTML, like Gecko) Chrome/89.0.4389.114 Safari/537.36" etag="rZXkZfLPmcyte8HZqUem" version="14.5.10" type="github">
  <diagram id="ydYtikKKXlg3hJDqYYok" name="Page-1">
    <mxGraphModel dx="1038" dy="588" grid="1" gridSize="10" guides="1" tooltips="1" connect="1" arrows="1" fold="1" page="1" pageScale="1" pageWidth="827" pageHeight="1169" math="0" shadow="0">
      <root>
        <mxCell id="0" />
        <mxCell id="1" parent="0" />
        <mxCell id="Nu6XZx6KIjNDyhywV99Q-7" value="" style="edgeStyle=orthogonalEdgeStyle;rounded=0;orthogonalLoop=1;jettySize=auto;html=1;" edge="1" parent="1" source="Nu6XZx6KIjNDyhywV99Q-1" target="Nu6XZx6KIjNDyhywV99Q-6">
          <mxGeometry relative="1" as="geometry" />
        </mxCell>
        <mxCell id="Nu6XZx6KIjNDyhywV99Q-1" value="Администратор" style="shape=umlActor;verticalLabelPosition=bottom;verticalAlign=top;html=1;outlineConnect=0;" vertex="1" parent="1">
          <mxGeometry x="50" y="95" width="30" height="60" as="geometry" />
        </mxCell>
        <mxCell id="Nu6XZx6KIjNDyhywV99Q-12" value="" style="edgeStyle=orthogonalEdgeStyle;rounded=0;orthogonalLoop=1;jettySize=auto;html=1;" edge="1" parent="1" source="Nu6XZx6KIjNDyhywV99Q-6" target="Nu6XZx6KIjNDyhywV99Q-11">
          <mxGeometry relative="1" as="geometry" />
        </mxCell>
        <mxCell id="Nu6XZx6KIjNDyhywV99Q-6" value="&lt;br&gt;Загрузить файл расписания" style="ellipse;whiteSpace=wrap;html=1;verticalAlign=top;" vertex="1" parent="1">
          <mxGeometry x="200" y="90" width="120" height="70" as="geometry" />
        </mxCell>
        <mxCell id="Nu6XZx6KIjNDyhywV99Q-11" value="&lt;br&gt;Применить нужный файл из списка" style="ellipse;whiteSpace=wrap;html=1;verticalAlign=top;" vertex="1" parent="1">
          <mxGeometry x="400" y="90" width="120" height="70" as="geometry" />
        </mxCell>
      </root>
    </mxGraphModel>
  </diagram>
</mxfile>
